<?xml version="1.0" encoding="UTF-8"?>
<svg version="1.1" xmlns="http://www.w3.org/2000/svg" xmlns:xlink="http://www.w3.org/1999/xlink" width="32" height="32" viewBox="0 0 32 32">
    <title>ctrl-layers</title>
    <g fill="none" fill-rule="evenodd">
        <path d="M0 1h32v32H0z"/>
        <path fill="#fff" fill-rule="nonzero" d="M2.852 21.049c-.244-.04-.394-.082-.394-.082l.188-.756c.009.004.126.035.312.066l-.106.772zM27.199 20.475a1.804 1.804 0 0 1-.251-.403l.596-.383c.075.155.122.213.139.233l-.484.553z"/>
        <path stroke="#fff" stroke-dasharray="1" stroke-width="2" d="M3.607 20.857s2.145-.933 3.017-3.398c.872-2.464 2.715-4.7 4.63-3.776 1.916.925 4.038 4.029 6.054 3.32 2.015-.708 5.302-4.077 6.97-3.163"/>
        <path fill="#fff" fill-rule="nonzero" d="M29.178 2.122a.718.718 0 0 0-.681-.065l-8.405 3.502-8.407-3.504a.73.73 0 0 0-.557 0L2.444 5.674A.724.724 0 0 0 2 6.342v22.434a.724.724 0 0 0 1.003.669l8.405-3.503 8.405 3.503a.73.73 0 0 0 .558 0l8.684-3.619a.724.724 0 0 0 .445-.668V2.724a.723.723 0 0 0-.322-.602zM12.13 3.81l7.237 3.016V27.69l-7.237-3.015V3.81zM3.447 6.824l7.237-3.015v20.865L3.447 27.69V6.824zm24.605 17.852l-7.237 3.015V6.824l7.237-3.015v20.867z"/>
    </g>
</svg>
