<?xml version="1.0" encoding="UTF-8"?>
<svg version="1.1" xmlns="http://www.w3.org/2000/svg" xmlns:xlink="http://www.w3.org/1999/xlink" width="56px" height="56px" viewBox="0 0 56 56">
    <title>map-crosshair</title>
    <defs>
        <path d="M29,54 C29,54.5522847 28.5522847,55 28,55 C27.4477153,55 27,54.5522847 27,54 L27,34 C27,33.4477153 27.4477153,33 28,33 C28.5522847,33 29,33.4477153 29,34 L29,54 Z M29,22 C29,22.5522847 28.5522847,23 28,23 C27.4477153,23 27,22.5522847 27,22 L27,2 C27,1.44771525 27.4477153,1 28,1 C28.5522847,1 29,1.44771525 29,2 L29,22 Z M54,27 C54.5522847,27 55,27.4477153 55,28 C55,28.5522847 54.5522847,29 54,29 L34,29 C33.4477153,29 33,28.5522847 33,28 C33,27.4477153 33.4477153,27 34,27 L54,27 Z M22,27 C22.5522847,27 23,27.4477153 23,28 C23,28.5522847 22.5522847,29 22,29 L2,29 C1.44771525,29 1,28.5522847 1,28 C1,27.4477153 1.44771525,27 2,27 L22,27 Z" id="path-1"></path>
    </defs>
    <g stroke="none" stroke-width="1" fill="none" fill-rule="evenodd">
        <g transform="translate(-299, -484)" fill-rule="nonzero">
            <g transform="translate(299, 484)">
                <g>
                    <use fill="#666" fill-rule="evenodd" xlink:href="#path-1"></use>
                    <path stroke="#fff" stroke-width="1" d="M29.5,54 C29.5,54.8284271 28.8284271,55.5 28,55.5 C27.1715729,55.5 26.5,54.8284271 26.5,54 L26.5,34 C26.5,33.1715729 27.1715729,32.5 28,32.5 C28.8284271,32.5 29.5,33.1715729 29.5,34 L29.5,54 Z M29.5,22 C29.5,22.8284271 28.8284271,23.5 28,23.5 C27.1715729,23.5 26.5,22.8284271 26.5,22 L26.5,2 C26.5,1.17157288 27.1715729,0.5 28,0.5 C28.8284271,0.5 29.5,1.17157288 29.5,2 L29.5,22 Z M54,26.5 C54.8284271,26.5 55.5,27.1715729 55.5,28 C55.5,28.8284271 54.8284271,29.5 54,29.5 L34,29.5 C33.1715729,29.5 32.5,28.8284271 32.5,28 C32.5,27.1715729 33.1715729,26.5 34,26.5 L54,26.5 Z M22,26.5 C22.8284271,26.5 23.5,27.1715729 23.5,28 C23.5,28.8284271 22.8284271,29.5 22,29.5 L2,29.5 C1.17157288,29.5 0.5,28.8284271 0.5,28 C0.5,27.1715729 1.17157288,26.5 2,26.5 L22,26.5 Z"></path>
                </g>
            </g>
        </g>
    </g>
</svg>