<svg xmlns="http://www.w3.org/2000/svg" width="256" height="64" viewBox="0 0 256 64">
    <g fill="none" fill-rule="evenodd">
        <path fill="#FFF" d="M-80-977h1920v3082H-80z"/>
        <g fill-rule="nonzero">
            <path fill="#453C90" d="M26.81 63.558c-.123-.016-.33-.05-.622-.101a41.3 41.3 0 0 1-.698-.133 31.718 31.718 0 0 1-8.667-3.16l.093-.556c.685-4.324 1.396-8.788 3.179-12.826.42-.436.721-.973.876-1.56l6.812.219c.587.008 1.03.016 1.329.023v-.002a3.1 3.1 0 0 0 1.546-.52c.495.314 1.069.48 1.654.478a2.97 2.97 0 0 0 2.159-.91c1.236.609 2.421 1.128 3.92 1.128h.315a26.805 26.805 0 0 0 4.916-.873c1.581-.384 3.308-.847 5.065-1.367a37.571 37.571 0 0 1-4.303 4.111 41.259 41.259 0 0 1-6.92 4.044 13.533 13.533 0 0 0-3.534 2.536 11.437 11.437 0 0 0-1.726 2.515c-.114.198-.222.4-.34.603a16.58 16.58 0 0 1-.737 1.112 9.615 9.615 0 0 0-1.31 2.287c-.35.998-.653 2.032-.947 3.025l-.062.197a31.355 31.355 0 0 1-1.999-.27zm13.024-11.704c2.417 3.3 5.967 5.25 9.615 6.949A31.865 31.865 0 0 1 32.003 64c-.624 0-1.242-.02-1.85-.057.278-.951.572-1.934.902-2.874a8.42 8.42 0 0 1 1.143-1.965c.284-.384.552-.785.799-1.21.119-.203.232-.411.35-.62.404-.806.911-1.556 1.51-2.229a12.244 12.244 0 0 1 3.184-2.281l1.793-.91zm-21.8-36.13a79.099 79.099 0 0 0-1.335-11.83 32.003 32.003 0 0 1 35.192 3.04 7.774 7.774 0 0 0-.577.655 8.394 8.394 0 0 0-1.118 2.194c-.103.254-.2.52-.309.774l-.422.967a31.115 31.115 0 0 1-2.572 4.994 19.69 19.69 0 0 1-2.797 3.119c-.675.65-1.366 1.32-2 2.047-.164.219-.334.447-.515.67l-1.242-1.132c-.082-.161-.18-.338-.283-.52a2.09 2.09 0 0 1-.417-1.143c.04-.41.623-.868 1.071-1.237.13-.11.258-.213.366-.312a.657.657 0 0 0 .057-.94.657.657 0 0 0-.933-.058 6.666 6.666 0 0 1-.33.275c-.628.489-1.39 1.144-1.545 2.048-.053.724.15 1.444.572 2.032l.072.14c-.134.188-.268.39-.407.603-.644 1.004-1.118 1.648-1.757 1.56-1.634-.25-1.979.675-2.309 1.559-.33.883-.572 2.136 1.108 2.827l.464.198c.61.278 1.243.504 1.89.675.362.088.729.15 1.098.182l1.505.062c1.03.052 2.061.104 3.092.177 1.409.066 2.805.304 4.158.707.824.26 1.334 1.081 1.726 1.819.639 1.206 1.252 2.526 1.989 4.288a27.626 27.626 0 0 0 1.84 3.477c.087.14.17.286.257.431-.335.192-.68.359-1.062.52a61.874 61.874 0 0 1-9.352 2.895 25.348 25.348 0 0 1-4.6.816c-1.3.078-2.345-.4-3.53-.962.067-.254.102-.516.103-.78a2.724 2.724 0 0 0-2.149-2.76c.036-.545.083-1.117.14-1.636a23.22 23.22 0 0 0 .19-3.067c-.016-.556-.052-1.112-.088-1.668-.036-.64-.082-1.279-.082-1.923v-.317c-.01-1.907-.031-4.74-2.149-5.717a9.258 9.258 0 0 0-4.596-.655c-.403.033-.804.09-1.2.172-.825.145-1.783.317-2.298.041-.34-.176-.464-.727-.541-1.299a13.681 13.681 0 0 1-.088-1.918v-.442c-.005-.899-.062-1.798-.124-2.666l-.062-1.04c-.02-.337-.051-.685-.077-1.039a11.569 11.569 0 0 1 0-3.118c.289-1.47.53-2.926.732-4.158a.666.666 0 0 0-.544-.766.661.661 0 0 0-.76.548c-.211 1.221-.443 2.666-.726 4.116a12.444 12.444 0 0 0-.031 3.472c.026.369.051.712.072 1.04.02.327.067.68.067 1.039.057.863.118 1.74.118 2.598v.437c-.014.694.019 1.389.098 2.079.083.572.33 1.814 1.268 2.287.938.473 2.092.265 3.122.083a9.84 9.84 0 0 1 1.03-.156 8.047 8.047 0 0 1 3.984.566c1.39.614 1.39 2.937 1.39 4.496v.333c.006.665.047 1.325.089 1.99.036.54.082 1.102.082 1.622 0 .966-.06 1.93-.18 2.89a44.784 44.784 0 0 0-.15 1.725 2.758 2.758 0 0 0-2.35 2.812c0 .48.119.954.346 1.377-.299.165-.64.234-.98.197l-7.682-.275a3.534 3.534 0 0 0-.515-1.56c-1.896-4.147-2.411-8.803-2.927-13.315l-.092-.758c.388-4.157.56-8.33.515-12.505zm7.348.644h-.01a7.338 7.338 0 0 0 .082 1.606c.036.322.262 1.543.551 1.683.289.14 1.025 0 1.319 0h3.36V17.1h-.758v-3.237h-3.38c-.381 0-.53-.078-.727.171-.391.494-.407 1.741-.437 2.334zm-10.65 24.967c-.083 1.881-.15 3.82-.197 5.8-1.85-.203-3.606-1.065-3.606-2.89 0-1.824 1.87-2.749 3.802-2.91zm1.86.094c.67.103 1.314.332 1.9.675a2.446 2.446 0 0 1 1.278 2.141c0 1.68-1.592 2.594-3.354 2.854.031-1.934.093-3.83.175-5.67zm40.153-1.742l6.683-1.683a31.914 31.914 0 0 1-3.53 9.672 31.004 31.004 0 0 0-2.705-3.415 5.093 5.093 0 0 0-1.447-.967 5.56 5.56 0 0 1-.85-.52 3.092 3.092 0 0 1-.835-1.403 11.732 11.732 0 0 0 2.576-1.684.383.383 0 0 0 .108 0zm1.577-4.12a17.245 17.245 0 0 1-2.39 3.008 9.323 9.323 0 0 1-1.134.863c-.093-.15-.18-.301-.268-.452a26.499 26.499 0 0 1-1.778-3.342c-.773-1.798-1.402-3.155-2.061-4.397a6.76 6.76 0 0 0-.912-1.377l-1.077-13.72a41.215 41.215 0 0 0 1.948-4.096l.412-.962c.118-.265.227-.545.335-.82.22-.662.532-1.289.927-1.861.177-.22.366-.428.567-.624a31.934 31.934 0 0 1 10.82 19.859l-.412.613a401.135 401.135 0 0 1-4.462 6.58c-.185.239-.35.483-.515.727zM43.75 28.02c-1.046-.073-2.097-.125-3.143-.187l-1.092-.052.263-.416a37.674 37.674 0 0 1 3.339-4.797c.592-.686 1.267-1.336 1.916-1.96a25.465 25.465 0 0 0 2.494-2.666l.856 10.914-.14-.062a18.318 18.318 0 0 0-4.493-.774zm15.66 8.3l.494-.712c1.36-1.95 2.695-3.945 4.003-5.9.052.739.093 1.524.093 2.298a32.387 32.387 0 0 1-.33 4.558l-5.4 1.362c.402-.525.773-1.087 1.14-1.606zM40.776 23.436c-.757 1.055-1.453 2.151-2.133 3.232l-.577.92a12.837 12.837 0 0 1-1.484-.556l-.453-.208c-.577-.239-.68-.317-.376-1.127.304-.811.304-.811.88-.728 1.51.218 2.412-1.143 3.056-2.141l.16-.245.927.853zM16.653 40.077c.098-2.053.258-4.126.423-6.184.318 2.31.851 4.583 1.592 6.792a7.168 7.168 0 0 0-2.015-.608zm-5.987 6.788a91.743 91.743 0 0 1 3.972 12.016A32.052 32.052 0 0 1 1.633 42.104l.031-.041.397-.27a7.835 7.835 0 0 0 1.793-1.466c.629.473 1.257.946 1.86 1.465.448.364.892.728 1.345 1.081.472.351.966.67 1.479.957.391.228.752.447 1.097.69.061.866.427 1.68 1.03 2.298v.047zM1.278 25.639a9.325 9.325 0 0 0-.515-.457A31.963 31.963 0 0 1 7.46 11.503l.124 2.266c.195 3.804.396 7.744.778 11.6l.036.296c.103.93.077 1.253-.3 1.45a3.58 3.58 0 0 1-1.36.245c-.19.01-.376.041-.55.041-.279.026-.583.089-.902.151-.686.125-1.464.28-1.83 0-.747-.587-1.473-1.263-2.18-1.913zm-.83 1.04c.706.655 1.433 1.325 2.206 1.912l.128.089.248 8.097c.005.255.03.53.062.806.065.465.065.937 0 1.403-.134.613-1.067 1.242-1.747 1.7l-.119.077A31.917 31.917 0 0 1 .448 26.68zm58.626 22.124l.088.146a32.162 32.162 0 0 1-8.435 9.022c-3.674-1.73-7.332-3.596-9.702-6.756a31.053 31.053 0 0 0 4.163-2.646 38.46 38.46 0 0 0 4.54-4.34c.556-.592 1.112-1.179 1.68-1.756.483-.177.968-.358 1.442-.556.228.75.662 1.421 1.252 1.933a6.46 6.46 0 0 0 1.03.619c.405.169.78.404 1.108.696a33.362 33.362 0 0 1 2.834 3.638zm-28.36-6.241c-.008-.423.16-.83.465-1.12.304-.291.715-.44 1.133-.408.402-.008.795.128 1.108.384.32.29.493.71.468 1.144 0 .884-.71 1.6-1.587 1.6a1.594 1.594 0 0 1-1.587-1.6zm-14.313 5.883a7.527 7.527 0 0 0 1.963-.504 43.131 43.131 0 0 0-1.824 6.87c-.036-.847-.078-1.694-.103-2.53-.036-1.29-.036-2.563-.036-3.836zM14.427 35.97c.119-.441.237-.883.366-1.299l.49-1.705c-.191 2.334-.377 4.694-.49 7.043-.656.04-1.305.16-1.932.358.282-.499.523-1.02.721-1.559.33-.93.593-1.902.845-2.838zm.15 16.366c.025.8.061 1.606.098 2.402-.675-2.282-1.417-4.569-2.299-6.798a7.47 7.47 0 0 0 2.16.52c-.006 1.278 0 2.572.04 3.876zM8.904 13.665a685.067 685.067 0 0 0-.196-3.591 32.23 32.23 0 0 1 6.23-5.192 74.578 74.578 0 0 1 1.18 10.862c.102 3.763-.124 7.588-.413 11.356l-2.061 7.198c-.129.442-.247.894-.371 1.34-.247.916-.505 1.861-.82 2.755a11.74 11.74 0 0 1-.952 1.929c-.165.327-.346.654-.516.987a3.7 3.7 0 0 0-1.195 1.705l-.613-.364a12.27 12.27 0 0 1-1.335-.858c-.443-.327-.886-.68-1.324-1.04-.685-.555-1.391-1.148-2.123-1.667.07-.544.07-1.094 0-1.638-.026-.244-.057-.483-.057-.706l-.216-7.718a7.876 7.876 0 0 0 1.38-.193c.253-.057.537-.135.769-.135l.515-.036a4.603 4.603 0 0 0 1.896-.39c1.273-.655 1.128-1.938 1.03-2.79l-.03-.276c-.382-3.82-.583-7.744-.778-11.538z"/>
            <path fill="#D40058" d="M82.79 61.122v-.005a1.442 1.442 0 1 1 0 2.882c-7.575 0-14.801-3.251-20.356-9.155a1.513 1.513 0 0 1-.323-1.629c.232-.519.748-.853 1.317-.853.436.007.85.196 1.14.52 4.988 5.317 11.454 8.24 18.223 8.24zM88.623 2.8v.01A1.41 1.41 0 0 1 88.772 0h.178a25.597 25.597 0 0 1 16.52 8.65c.46.53.46 1.318 0 1.847-.274.305-.663.48-1.073.484a1.417 1.417 0 0 1-1.083-.489A22.774 22.774 0 0 0 88.622 2.8zm.13 33.344c-.468-.12-.942-.24-1.4-.338v-6.399c1.244.312 1.936.843 2.228 1.701.23.768.387 1.555.468 2.352.095.963.294 1.914.594 2.835.036.099.078.197.12.296a27.837 27.837 0 0 1-2.01-.447zm2.515-5.629c-.661-1.914-2.374-2.6-3.89-2.934v-6.549a21.667 21.667 0 0 1 19.176 11.496l-1.24.978c-.13.104-.265.23-.405.354a4.758 4.758 0 0 1-.594.484h-.062c-.255-.104-3.28-1.888-3.733-2.185a.668.668 0 0 0-.734 1.113l.203.1-1.115.395-.317.104a1.92 1.92 0 0 0-1.411 1.165c-.063.135-.14.348-.219.582a9.005 9.005 0 0 1-.437 1.093c-.573.031-2.426 0-3.697 0a10.113 10.113 0 0 1-.458-1.04 12.168 12.168 0 0 1-.52-2.466 13.936 13.936 0 0 0-.547-2.69zm1.65 32.627a.281.281 0 0 0-.052.047c-1.04.277-2.1.48-3.17.603-.782.083-1.167.26-1.75-.13a1.269 1.269 0 0 1-.593-1.04V48.475l6.143 13.525c-.213.375-.4.76-.578 1.14zm7.388-11.6c1.14 1.726 2.978 2.834 4.535 3.615a21.603 21.603 0 0 1-4.686 4.614l-1.291-1.826a.672.672 0 0 0-.984-.12l-3.327 2.887-.104.104-7.076-15.569v-8.068c.354.083.714.166 1.073.26.987.273 1.993.471 3.01.593a11.135 11.135 0 0 0 3.019 3.563c.75.541 2.478 1.488 3.874 1.192a2.082 2.082 0 0 0 1.41-1.04c.317-.65.494-1.36.521-2.081.172-2.144.818-2.315 1.24-2.034.827.551.348 1.955-.292 3.386l-.13.297a20.042 20.042 0 0 0-1.734 5.025 7.168 7.168 0 0 0 .942 5.201zm7.33-13.895c.298.151.6.26.896.396a21.281 21.281 0 0 1-2.717 15.642h-.032c-1.385-.708-3.035-1.68-3.988-3.122a5.36 5.36 0 0 1-.671-3.922 18.196 18.196 0 0 1 1.582-4.562l.13-.296c.558-1.238 1.698-4.162-.577-5.494-3.92-2.294-2.926 3.97-4.077 4.63-.078.042-.094.125-.23.156-.577.115-1.749-.359-2.441-.879a8.846 8.846 0 0 1-1.963-2.08h1.245a9.208 9.208 0 0 0 2.29-.152c.485-.275.75-.951 1.073-1.867.068-.192.125-.364.177-.473.13-.297.15-.302.599-.448l.359-.114 1.713-.609.229-.093c.068-.032.193-.094.161-.094.125.026 2.25 1.27 2.25 1.27l1.561.858c.101.059.217.09.334.088a.656.656 0 0 0 .578-.338.665.665 0 0 0-.25-.91l-.313-.172c.078-.068.104-.094.224-.198.12-.104.234-.213.349-.302l1.005-.806c.386.864.716 1.752.989 2.658a.663.663 0 0 0-.484 1.233zm-8.6 22.889a21.48 21.48 0 0 1-4.374 2.122c.198-.348.45-.662.745-.931l2.77-2.409.859 1.218zM73.596 31.758l-5.05-4.417a36.32 36.32 0 0 0-4.629-13.712l3.947 3.35c.278.23.462.554.52.91.22.82.377 1.654.47 2.497.089.738.216 1.47.38 2.195a9.984 9.984 0 0 0 2.488 4.947 8.558 8.558 0 0 0 6.274 2.638c.412 0 .824-.027 1.234-.078 1.572-.198 3.139-.49 4.66-.806v5.722L75.7 32.75a6.324 6.324 0 0 0-.521-.13c-.303-.05-.6-.134-.885-.25a2.17 2.17 0 0 1-.438-.369l-.26-.244zm1.77 2.278l8.544 2.351v6.092a21.355 21.355 0 0 1-15.328-6.575c.157-1.346.237-2.699.24-4.053 0-.863-.037-1.716-.094-2.564l3.988 3.48c.068.057.136.125.209.192.223.24.483.444.77.604.383.174.787.297 1.203.364.166.036.323.067.468.109zM82.603.026C84.014-.052 83.91 1.54 83.91 1.54v25.962c-1.593.333-3.243.65-4.878.854a6.923 6.923 0 0 1-6.003-2.024 8.206 8.206 0 0 1-2.041-4.125c-.151-.624-.24-1.275-.333-1.956l.098.062a4.38 4.38 0 0 0 2.24.9c.537 0 1.065-.147 1.525-.426.39-.219.572-.265.744-.219.647.22 1.253.547 1.791.968.292.218.328.244-.156 1.14l-.125.233a.894.894 0 0 0 .791 1.306.88.88 0 0 0 .787-.479l.12-.218c.421-.806 1.212-2.242-.35-3.407a7.76 7.76 0 0 0-2.348-1.275 2.683 2.683 0 0 0-2.02.338 1.386 1.386 0 0 1-.718.24c-1.114-.11-2.562-1.29-2.718-1.29-.062-.271-.125-.458-.208-.729a3.21 3.21 0 0 0-1.078-1.758l-4.02-3.418a.901.901 0 0 0-.369-.177 21.497 21.497 0 0 1 5.816-7.319l.036.078a.666.666 0 0 0 .61.39.64.64 0 0 0 .275-.057.67.67 0 0 0 .333-.884l-.161-.354A21.265 21.265 0 0 1 82.603.026zM96.14 29.474a.665.665 0 0 0 .052.942c.443.4.896.8 1.354 1.19.122.1.274.156.432.157a.672.672 0 0 0 .432-1.181c-.448-.375-.89-.77-1.322-1.16a.672.672 0 0 0-.948.052zm-2.083-3.085v.01a.668.668 0 0 0-1.109.745c.13.184.275.358.433.52l.52.52.323.343c.125.134.3.21.484.208a.688.688 0 0 0 .464-.182.676.676 0 0 0 .026-.947l-.323-.338c-.182-.16-.349-.343-.52-.52a3.19 3.19 0 0 1-.298-.359zm-3.077-4.047l.01.01a.66.66 0 0 0-.108.927c.33.43.61.898.833 1.394a.672.672 0 0 0 .598.374.646.646 0 0 0 .292-.067.66.66 0 0 0 .312-.89 8.275 8.275 0 0 0-1-1.654.661.661 0 0 0-.937-.094zM72.982 9.312a.646.646 0 0 0 .24-.027.666.666 0 0 0 .353-.879c-.109-.26-.224-.525-.343-.78l-.38-.91a.668.668 0 0 0-1.213.556l.395.88c.115.233.224.499.333.754a.666.666 0 0 0 .615.405zm2.452 3.885a.666.666 0 0 0 .167-.93 14.142 14.142 0 0 1-.911-1.468.668.668 0 0 0-1.182.624c.062.125.13.245.198.365.25.436.53.853.796 1.238.125.181.331.29.552.29a.698.698 0 0 0 .38-.119zm3.577 2.82a.665.665 0 0 0-.453-.843l-.661-.208a2.604 2.604 0 0 1-.719-.323.947.947 0 0 1-.14-.145.667.667 0 0 0-1.042.832c.11.142.235.27.375.38.352.235.741.411 1.15.52l.22.068.16.052.277.088c.148.052.31.052.458 0a.671.671 0 0 0 .375-.421zm3.926 1.602a.67.67 0 0 0-.375-.869l-1.682-.666a.669.669 0 0 0-.49 1.244l1.677.665a.672.672 0 0 0 .87-.375z"/>
            <path fill="#453C90" d="M165.788 28.24a7.057 7.057 0 0 1-5.214 2.293c-4.668 0-8.055-3.672-8.055-8.718 0-5.39 4.185-8.719 8.055-8.719a6.95 6.95 0 0 1 5.214 2.242V6.527c0-.153.124-.277.278-.277h2.743c.154 0 .28.123.283.277v23.252a.283.283 0 0 1-.283.277h-2.743a.277.277 0 0 1-.278-.277v-1.538zm-9.964-6.425c0 2.82 1.291 5.856 4.982 5.872 3.119 0 4.982-2.99 4.982-5.872 0-3.682-1.863-5.877-4.982-5.877-3.438 0-4.982 3.046-4.982 5.877zm16.644 8.236a.278.278 0 0 1-.278-.277V13.82c0-.153.125-.277.278-.277h2.517c.144-.001.264.108.278.25l.16 1.58a6.769 6.769 0 0 1 5.26-2.287c4.142 0 6.248 2.703 6.248 8.026v8.662a.283.283 0 0 1-.284.277h-2.743a.277.277 0 0 1-.278-.277v-7.96c0-1.384 0-2.917-.442-4.046-.484-1.25-1.405-1.83-2.95-1.83-1.909 0-4.74 1.605-4.74 3.825v10.011a.283.283 0 0 1-.283.277h-2.743zm43.68 10.35c.14.01.25.121.258.26a.373.373 0 0 1 0 .129l-7.164 17.196c-1.405 3.256-3.65 5.302-6.32 5.764h-.006a.289.289 0 0 1-.216-.103l-1.492-1.82a.281.281 0 0 1 .149-.451c2.589-.642 4.092-2.062 5.013-4.744l-6.655-15.847a.276.276 0 0 1 0-.262.294.294 0 0 1 .237-.123h2.867a.273.273 0 0 1 .262.18l4.956 12.718 5.085-12.723a.273.273 0 0 1 .263-.175h2.764zM129.473 6.25c6.33 0 11.483 5.441 11.483 12.129 0 6.687-5.158 12.154-11.483 12.154S118 25.066 118 18.38c0-6.688 5.147-12.129 11.472-12.129zm8.178 12.129c0-5.124-3.664-9.293-8.178-9.293-4.514 0-8.183 4.17-8.183 9.293 0 5.123 3.675 9.292 8.183 9.292 4.509 0 8.178-4.164 8.178-9.292zM154.115 40.4a.278.278 0 0 1 .283.277v15.955a.276.276 0 0 1-.283.277h-2.512a.272.272 0 0 1-.278-.252l-.164-1.58a6.753 6.753 0 0 1-5.26 2.288c-4.144 0-6.249-2.697-6.249-8.026v-8.662a.283.283 0 0 1 .283-.277h2.749a.278.278 0 0 1 .278.277v7.975c0 1.446 0 2.918.437 4.051.49 1.247 1.41 1.826 2.954 1.826 1.91 0 4.74-1.605 4.74-3.82V40.676a.276.276 0 0 1 .279-.277h2.743zm30.335.123c.053.08.063.18.026.267l-6.815 15.95a.278.278 0 0 1-.257.169h-2.635a.283.283 0 0 1-.258-.17l-6.716-15.954a.276.276 0 0 1 .257-.385h2.862a.273.273 0 0 1 .262.18l4.905 12.56 5.08-12.565a.273.273 0 0 1 .257-.175h2.795a.283.283 0 0 1 .237.123zm7.864-.58c4.9 0 7.597 3.221 7.597 9.088a.276.276 0 0 1-.278.282h-12.054c.2 2.58 1.534 5.231 4.735 5.231 2.352 0 4.452-.712 5.744-1.953a.289.289 0 0 1 .262-.072c.092.02.166.086.196.174l.803 2.154c.04.11.01.234-.077.313-2.152 1.836-4.957 2.22-6.928 2.22-4.817 0-8.06-3.502-8.06-8.718 0-5.056 3.392-8.718 8.06-8.718zm-4.704 7.001h8.95c-.484-2.82-1.842-4.139-4.246-4.139-2.404 0-4.22 1.61-4.704 4.14zm-44.19-16.893a.277.277 0 0 1-.278-.277V13.845c0-.153.124-.277.278-.277h2.517c.144 0 .264.109.278.252l.144 1.446a4.91 4.91 0 0 1 4.066-2.17 7.23 7.23 0 0 1 1.75.241.277.277 0 0 1 .216.272v2.493a.277.277 0 0 1-.417.24 2.58 2.58 0 0 0-1.688-.42c-3.567 0-3.84 3.975-3.84 5.19v8.662a.276.276 0 0 1-.283.277h-2.743zm104.983-16.955c4.9 0 7.597 3.216 7.597 9.068a.277.277 0 0 1-.278.276h-12.054c.201 2.585 1.54 5.231 4.735 5.231 2.383 0 4.442-.728 5.754-1.959a.283.283 0 0 1 .458.103l.803 2.154a.266.266 0 0 1-.087.338c-2.151 1.842-4.951 2.226-6.928 2.226-4.817 0-8.054-3.513-8.054-8.718 0-5.057 3.386-8.719 8.054-8.719zm-4.704 6.975h8.95c-.483-2.82-1.842-4.139-4.246-4.139-2.403 0-4.22 1.616-4.704 4.14zM129.956 42.96c4.987 1.313 7.514 3.842 7.509 7.519-.02 4.056-3.145 6.887-7.597 6.887-3.324-.036-6.325-1.144-8.023-2.964a.276.276 0 0 1 0-.349l1.436-2.051a.283.283 0 0 1 .2-.118c.08-.014.16.013.216.072a9.539 9.539 0 0 0 6.177 2.564 3.94 3.94 0 0 0 2.918-1.147 3.91 3.91 0 0 0 1.148-2.91c.025-2.764-2.167-3.58-4.828-4.303-4.272-1.164-6.609-3.605-6.609-6.856 0-4.241 3.82-6.206 7.365-6.206 2.037.008 4.032.582 5.76 1.657.064.043.108.11.123.184a.26.26 0 0 1-.046.21l-1.405 1.99a.289.289 0 0 1-.366.088 9.288 9.288 0 0 0-4.066-1.282c-2.002 0-4.06 1.04-4.06 3.369-.052 2.246 2.341 3.133 4.148 3.646zm36.578-2.784a.287.287 0 0 1 .216.277v2.502a.287.287 0 0 1-.144.246.294.294 0 0 1-.278 0 2.606 2.606 0 0 0-1.693-.42c-3.557 0-3.835 3.974-3.835 5.19v8.662a.276.276 0 0 1-.277.277h-2.749a.277.277 0 0 1-.278-.277V40.677a.276.276 0 0 1 .278-.277h2.517c.144 0 .264.109.278.252l.144 1.446a4.91 4.91 0 0 1 4.066-2.17 7.705 7.705 0 0 1 1.755.247zM238.29 26.06c.09.034.154.112.17.205l.71 2.154c.035.11 0 .23-.087.303-1.457 1.2-3.408 1.81-5.796 1.81-4.879 0-8.291-3.692-8.291-8.749s3.5-8.718 8.322-8.718c1.2 0 4.17.23 5.713 2.364.07.096.07.226 0 .323l-1.158 1.672a.263.263 0 0 1-.216.123.387.387 0 0 1-.232-.108c-1.147-1.425-2.486-1.538-4.117-1.538-3.675 0-4.977 3.164-4.977 5.877 0 3.728 1.812 5.872 4.977 5.872a7.093 7.093 0 0 0 4.725-1.539.263.263 0 0 1 .257-.05zm-41.575 4.472c-4.669 0-8.055-3.687-8.055-8.718 0-5.39 4.179-8.719 8.055-8.719a6.944 6.944 0 0 1 5.275 2.313l.165-1.615a.278.278 0 0 1 .278-.251h2.516c.154 0 .278.124.278.277v15.985a.277.277 0 0 1-.278.277h-2.748a.277.277 0 0 1-.278-.277v-1.539a7.047 7.047 0 0 1-5.208 2.267zm-4.751-8.718c0 2.82 1.307 5.856 4.977 5.872 3.119 0 4.982-2.99 4.982-5.872 0-3.682-1.863-5.877-4.982-5.877-3.433 0-4.977 3.046-4.977 5.877zm24.854-8.719c4.148 0 6.248 2.693 6.227 8.016v8.662a.277.277 0 0 1-.278.277h-2.748a.277.277 0 0 1-.278-.277v-7.96c0-1.384 0-2.917-.437-4.046-.49-1.25-1.41-1.83-2.955-1.83-1.904 0-4.74 1.605-4.74 3.825v10.011a.276.276 0 0 1-.278.277h-2.748a.277.277 0 0 1-.278-.277V13.83c0-.153.124-.277.278-.277h2.532c.144 0 .265.108.278.251l.16 1.58a6.779 6.779 0 0 1 5.265-2.288z"/>
        </g>
    </g>
</svg>
