<?xml version="1.0" encoding="utf-8"?>
<svg version="1.1" xmlns="http://www.w3.org/2000/svg" xmlns:xlink="http://www.w3.org/1999/xlink" width="72" height="72" viewBox="0 0 72 72">
    <defs>
        <filter id="outer-glow">
            <feGaussianBlur in="SourceGraphic" stdDeviation="1"/>
        </filter>
    </defs>
    <svg id="checkbox-checked" width="24" height="24" viewBox="0 0 24 24" x="0" y="0">
        <rect x="3" y="3" rx="3" ry="3" width="18" height="18" fill="#2979af"/>
        <path fill="#fff" stroke="#fff" d="M10.096 14.02l-2.5-2.499-.833.834 3.333 3.332 7.14-7.14-.833-.834z"/>
    </svg>
    <svg id="checkbox-unchecked" width="24" height="24" viewBox="0 0 24 24" x="24" y="0">
        <rect x="3" y="3" rx="3" ry="3" width="18" height="18" fill="#333"/>
        <rect x="4" y="4" rx="2" ry="2" width="16" height="16" fill="#fff"/>
    </svg>
    <svg id="checkbox-indeterminate" width="24" height="24" viewBox="0 0 24 24" x="48" y="0">
        <rect x="3" y="3" rx="3" ry="3" width="18" height="18" fill="#2979af"/>
        <path fill="#fff" d="M7 11h10v2H7z"/>
    </svg>
    <svg id="checkbox-checked-focus" width="24" height="24" viewBox="0 0 24 24" x="0" y="24">
        <rect style="filter:url(#outer-glow)" x="2.5" y="2.5" rx="3" ry="3" width="19" height="19" fill="#2979af"/>
        <rect x="3" y="3" rx="3" ry="3" width="18" height="18" fill="#2979af"/>
        <path fill="#fff" stroke="#fff" d="M10.096 14.02l-2.5-2.499-.833.834 3.333 3.332 7.14-7.14-.833-.834z"/>
    </svg>
    <svg id="checkbox-unchecked-focus" width="24" height="24" viewBox="0 0 24 24" x="24" y="24">
        <rect style="filter:url(#outer-glow)" x="2.5" y="2.5" rx="3" ry="3" width="19" height="19" fill="#2979af"/>
        <rect x="3" y="3" rx="3" ry="3" width="18" height="18" fill="#333"/>
        <rect x="4" y="4" rx="2" ry="2" width="16" height="16" fill="#fff"/>
    </svg>
    <svg id="checkbox-indeterminate-focus" width="24" height="24" viewBox="0 0 24 24" x="48" y="24">
        <rect style="filter:url(#outer-glow)" x="2.5" y="2.5" rx="3" ry="3" width="19" height="19" fill="#2979af"/>
        <rect x="3" y="3" rx="3" ry="3" width="18" height="18" fill="#2979af"/>
        <path fill="#fff" d="M7 11h10v2H7z"/>
    </svg>
    <svg id="checkbox-checked-disabled" width="24" height="24" viewBox="0 0 24 24" x="0" y="48">
        <rect x="3" y="3" rx="3" ry="3" width="18" height="18" fill="#97bdd6"/>
        <path fill="#fff" stroke="#fff" d="M10.096 14.02l-2.5-2.499-.833.834 3.333 3.332 7.14-7.14-.833-.834z"/>
    </svg>
    <svg id="checkbox-unchecked-disabled" width="24" height="24" viewBox="0 0 24 24" x="24" y="48">
        <rect x="3" y="3" rx="3" ry="3" width="18" height="18" fill="#bebebe"/>
        <rect x="4" y="4" rx="2" ry="2" width="16" height="16" fill="#eee"/>
    </svg>
    <svg id="checkbox-indeterminate-disabled" width="24" height="24" viewBox="0 0 24 24" x="48" y="48">
        <rect x="3" y="3" rx="3" ry="3" width="18" height="18" fill="#97bdd6"/>
        <path fill="#fff" d="M7 11h10v2H7z"/>
    </svg>
</svg>
