<?xml version="1.0" encoding="UTF-8"?>
<svg version="1.1" xmlns="http://www.w3.org/2000/svg" xmlns:xlink="http://www.w3.org/1999/xlink" width="30" height="30" viewBox="0 0 30 30">
    <title>ctrl-crosshair</title>
    <path fill="#fff" fill-rule="nonzero" d="M14.356.94v3.144C8.645 4.395 4.064 8.837 3.742 14.375H.5v1.25h3.242c.322 5.538 4.903 9.98 10.614 10.291v3.145h1.288v-3.145c5.711-.311 10.292-4.753 10.614-10.291H29.5v-1.25h-3.242c-.322-5.538-4.903-9.98-10.614-10.291V.939h-1.288zm0 4.393v4.355h1.288V5.333c5.01.309 9.007 4.184 9.325 9.042h-4.491v1.25h4.49c-.317 4.858-4.314 8.733-9.324 9.042v-4.355h-1.288v4.355c-5.01-.309-9.007-4.184-9.325-9.042h4.491v-1.25h-4.49c.317-4.858 4.314-8.733 9.324-9.042zm.644 7.71c-1.11 0-2.018.88-2.018 1.957s.908 1.958 2.018 1.958c1.11 0 2.019-.88 2.019-1.958 0-1.076-.908-1.957-2.019-1.957z"/>
</svg>
