<?xml version="1.0" encoding="utf-8"?>
<svg version="1.1" xmlns="http://www.w3.org/2000/svg" xmlns:xlink="http://www.w3.org/1999/xlink" width="96" height="48" viewBox="0 0 96 48">
    <svg id="inline-notification-error" width="24" height="24" viewBox="0 0 24 24" x="0" y="0">
        <path fill="#c63d54" d="M8.395 2.298h7.208c0.265 0 0.52 0.105 0.707 0.293l5.097 5.097c0.188 0.188 0.293 0.442 0.293 0.707v7.208c0 0.265-0.105 0.52-0.293 0.707l-5.097 5.097c-0.188 0.188-0.442 0.293-0.707 0.293h-7.208c-0.265 0-0.52-0.105-0.707-0.293l-5.097-5.097c-0.188-0.188-0.293-0.442-0.293-0.707v-7.208c0-0.265 0.105-0.52 0.293-0.707l5.097-5.097c0.188-0.188 0.442-0.293 0.707-0.293zM11 7l0.618 6.997h0.845l0.512-6.997h-1.976zM11.159 16.136c0 0.251 0.086 0.458 0.259 0.622s0.383 0.245 0.63 0.245c0.237 0 0.443-0.082 0.615-0.245s0.259-0.37 0.259-0.622c0-0.27-0.086-0.487-0.259-0.649s-0.378-0.245-0.615-0.245c-0.247 0-0.457 0.082-0.63 0.245s-0.259 0.38-0.259 0.649z"></path>
    </svg>
    <svg id="inline-notification-info" width="24" height="24" viewBox="0 0 24 24" x="24" y="0">
        <path fill="#0071bc" d="M12 22c-5.523 0-10-4.477-10-10s4.478-10 10-10c5.523 0 10 4.477 10 10s-4.477 10-10 10zM13.719 10.604h-2.245l-2.156 4.42c-0.283 0.644-0.127 1.961 1.256 1.976 0.754 0.017 1.978-0.8 2.213-1.319 0.392-0.454 0.032-0.673-0.236-0.47-0.565 0.47-0.973 0.095-0.832-0.391l1.999-4.216zM11.478 8.774c0.188 0.611 1.052 0.956 1.931 0.721 0.91-0.251 1.475-0.956 1.303-1.6-0.172-0.675-1.052-0.958-1.93-0.722s-1.507 0.926-1.303 1.601z"></path>
    </svg>
    <svg id="inline-notification-success" width="24" height="24" viewBox="0 0 24 24" x="48" y="0">
        <path fill="#118011" d="M12 22c-5.523 0-10-4.477-10-10s4.478-10 10-10c5.523 0 10 4.477 10 10s-4.477 10-10 10zM9.932 14.308l-2.083-2.083c-0.23-0.23-0.603-0.23-0.833 0s-0.23 0.603 0 0.833l2.209 2.209c0.391 0.391 1.024 0.391 1.414 0l6.017-6.017c0.23-0.23 0.23-0.603 0-0.833s-0.603-0.23-0.833 0l-5.891 5.891z"></path>
    </svg>
    <svg id="inline-notification-warning" width="24" height="24" viewBox="0 0 24 24" x="72" y="0">
        <path fill="#ffb000" d="M13.962 19.412c-1.103 1.912-2.896 1.902-3.994 0l-7.471-12.95c-1.103-1.912-0.198-3.462 1.997-3.462h14.942c2.206 0 3.095 1.559 1.997 3.462l-7.471 12.95zM11 6l0.618 6.997h0.845l0.512-6.997h-1.976zM11.159 15.136c0 0.251 0.086 0.458 0.259 0.622s0.383 0.245 0.63 0.245c0.237 0 0.443-0.082 0.615-0.245s0.259-0.37 0.259-0.622c0-0.27-0.086-0.487-0.259-0.649s-0.378-0.245-0.615-0.245c-0.247 0-0.457 0.082-0.63 0.245s-0.259 0.38-0.259 0.649z"></path>
    </svg>
    <svg id="toast-notification-error" width="24" height="24" viewBox="0 0 24 24" x="0" y="24">
        <path fill="#fff" d="M8.395 2.298h7.208c0.265 0 0.52 0.105 0.707 0.293l5.097 5.097c0.188 0.188 0.293 0.442 0.293 0.707v7.208c0 0.265-0.105 0.52-0.293 0.707l-5.097 5.097c-0.188 0.188-0.442 0.293-0.707 0.293h-7.208c-0.265 0-0.52-0.105-0.707-0.293l-5.097-5.097c-0.188-0.188-0.293-0.442-0.293-0.707v-7.208c0-0.265 0.105-0.52 0.293-0.707l5.097-5.097c0.188-0.188 0.442-0.293 0.707-0.293zM11 7l0.618 6.997h0.845l0.512-6.997h-1.976zM11.159 16.136c0 0.251 0.086 0.458 0.259 0.622s0.383 0.245 0.63 0.245c0.237 0 0.443-0.082 0.615-0.245s0.259-0.37 0.259-0.622c0-0.27-0.086-0.487-0.259-0.649s-0.378-0.245-0.615-0.245c-0.247 0-0.457 0.082-0.63 0.245s-0.259 0.38-0.259 0.649z"></path>
    </svg>
    <svg id="toast-notification-info" width="24" height="24" viewBox="0 0 24 24" x="24" y="24">
        <path fill="#fff" d="M12 22c-5.523 0-10-4.477-10-10s4.478-10 10-10c5.523 0 10 4.477 10 10s-4.477 10-10 10zM13.719 10.604h-2.245l-2.156 4.42c-0.283 0.644-0.127 1.961 1.256 1.976 0.754 0.017 1.978-0.8 2.213-1.319 0.392-0.454 0.032-0.673-0.236-0.47-0.565 0.47-0.973 0.095-0.832-0.391l1.999-4.216zM11.478 8.774c0.188 0.611 1.052 0.956 1.931 0.721 0.91-0.251 1.475-0.956 1.303-1.6-0.172-0.675-1.052-0.958-1.93-0.722s-1.507 0.926-1.303 1.601z"></path>
    </svg>
    <svg id="toast-notification-success" width="24" height="24" viewBox="0 0 24 24" x="48" y="24">
        <path fill="#fff" d="M12 22c-5.523 0-10-4.477-10-10s4.478-10 10-10c5.523 0 10 4.477 10 10s-4.477 10-10 10zM9.932 14.308l-2.083-2.083c-0.23-0.23-0.603-0.23-0.833 0s-0.23 0.603 0 0.833l2.209 2.209c0.391 0.391 1.024 0.391 1.414 0l6.017-6.017c0.23-0.23 0.23-0.603 0-0.833s-0.603-0.23-0.833 0l-5.891 5.891z"></path>
    </svg>
    <svg id="toast-notification-warning" width="24" height="24" viewBox="0 0 24 24" x="72" y="24">
        <path fill="#333" d="M13.962 19.412c-1.103 1.912-2.896 1.902-3.994 0l-7.471-12.95c-1.103-1.912-0.198-3.462 1.997-3.462h14.942c2.206 0 3.095 1.559 1.997 3.462l-7.471 12.95zM11 6l0.618 6.997h0.845l0.512-6.997h-1.976zM11.159 15.136c0 0.251 0.086 0.458 0.259 0.622s0.383 0.245 0.63 0.245c0.237 0 0.443-0.082 0.615-0.245s0.259-0.37 0.259-0.622c0-0.27-0.086-0.487-0.259-0.649s-0.378-0.245-0.615-0.245c-0.247 0-0.457 0.082-0.63 0.245s-0.259 0.38-0.259 0.649z"></path>
    </svg>
</svg>
